<?xml version="1.0" encoding="iso-8859-1"?>
<!-- Uploaded to: SVG Repo, www.svgrepo.com, Generator: SVG Repo Mixer Tools -->
<svg height="800px" width="800px" version="1.1" id="Layer_1" xmlns="http://www.w3.org/2000/svg" xmlns:xlink="http://www.w3.org/1999/xlink" 
	 viewBox="0 0 477.728 477.728" xml:space="preserve">
<path style="fill:#EBC858;" d="M238.864,166.864c-30.88,0-56,25.128-56,56v16.192h16c4.416,0,8,3.392,8,7.808v48.192h48
	c4.416,0,8,3.392,8,7.808v45.344c8-2.504,24-6.792,32-12.496V222.864C294.864,191.992,269.744,166.864,238.864,166.864z"/>
<path style="fill:#E07940;" d="M238.864,94.864c-79.4,0-144,64.6-144,144s64.6,144,144,144s144-64.6,144-144
	S318.264,94.864,238.864,94.864z M238.864,366.864c-70.576,0-128-57.424-128-128s57.424-128,128-128s128,57.424,128,128
	C366.864,309.448,309.44,366.864,238.864,366.864z"/>
<path style="fill:#EBC858;" d="M238.864,126.864c-61.76,0-112,50.24-112,112s50.24,112,112,112c2.704,0,8-0.216,8-0.408v-39.4h-48
	c-4.416,0-8-3.768-8-8.192v-47.808h-16c-4.416,0-8-3.768-8-8.192v-24c0-39.704,32.304-72,72-72s72,32.296,72,72v101.664
	c24-20.56,40-51.312,40-85.664C350.864,177.112,300.624,126.864,238.864,126.864z"/>
<g>
	<path style="fill:#334C5B;" d="M238.864,78.864c-88.224,0-160,71.776-160,160s71.776,160,160,160s160-71.776,160-160
		S327.088,78.864,238.864,78.864z M238.864,382.864c-79.4,0-144-64.6-144-144s64.6-144,144-144s144,64.6,144,144
		S318.264,382.864,238.864,382.864z"/>
	<path style="fill:#334C5B;" d="M238.864,110.864c-70.576,0-128,57.424-128,128s57.424,128,128,128s128-57.424,128-128
		S309.44,110.864,238.864,110.864z M294.864,335.712c-8,5.712-24,9.992-32,12.496v-45.344c0-4.416-3.584-7.808-8-7.808h-48v-48.192
		c0-4.416-3.584-7.808-8-7.808h-16v-16.192c0-30.872,25.12-56,56-56s56,25.128,56,56V335.712z M310.864,324.536V222.864
		c0-39.704-32.304-72-72-72s-72,32.296-72,72v24c0,4.424,3.584,8.192,8,8.192h16v47.808c0,4.424,3.584,8.192,8,8.192h48v39.408
		c0,0.192-5.296,0.408-8,0.408c-61.76,0-112-50.24-112-112s50.24-112,112-112s112,50.24,112,112
		C350.864,273.216,334.864,303.976,310.864,324.536z"/>
	<path style="fill:#334C5B;" d="M341.2,48.616c-4.872-2.632-9.896-5.096-14.912-7.312l-6.48,14.624
		c4.64,2.064,9.288,4.336,13.8,6.768L341.2,48.616z"/>
	<path style="fill:#334C5B;" d="M310.864,35.152c-5.224-1.84-10.56-3.504-15.856-4.92l-4.152,15.456
		c4.904,1.32,9.848,2.856,14.688,4.56L310.864,35.152z"/>
	<path style="fill:#334C5B;" d="M369.112,66.544c-4.408-3.336-8.992-6.528-13.608-9.504l-8.656,13.456
		c4.288,2.76,8.528,5.72,12.616,8.816L369.112,66.544z"/>
	<path style="fill:#334C5B;" d="M402.12,123.32l13.056-9.248c-3.216-4.528-6.616-8.96-10.12-13.168l-12.296,10.232
		C396,115.024,399.152,119.128,402.12,123.32z"/>
	<path style="fill:#334C5B;" d="M417.928,149.696l14.312-7.144c-2.456-4.92-5.136-9.816-7.984-14.568l-13.728,8.216
		C413.168,140.6,415.656,145.144,417.928,149.696z"/>
	<path style="fill:#334C5B;" d="M429.488,178.184l15.24-4.856c-1.664-5.224-3.56-10.48-5.648-15.616l-14.824,6
		C426.192,168.48,427.944,173.344,429.488,178.184z"/>
	<path style="fill:#334C5B;" d="M436.504,208.088l15.816-2.44c-0.84-5.456-1.912-10.936-3.168-16.312l-15.576,3.656
		C434.736,197.96,435.72,203.048,436.504,208.088z"/>
	<path style="fill:#334C5B;" d="M393.96,88.528c-3.864-3.984-7.904-7.848-12.008-11.472L371.36,89.04
		c3.8,3.36,7.536,6.928,11.12,10.624L393.96,88.528z"/>
	<path style="fill:#334C5B;" d="M278.808,26.56c-5.448-1.024-10.984-1.84-16.44-2.424l-1.704,15.904
		c5.048,0.536,10.16,1.296,15.192,2.232L278.808,26.56z"/>
	<path style="fill:#334C5B;" d="M136.528,429.12c4.872,2.632,9.896,5.096,14.912,7.312l6.48-14.624
		c-4.64-2.064-9.288-4.336-13.8-6.768L136.528,429.12z"/>
	<path style="fill:#334C5B;" d="M108.616,411.184c4.408,3.336,8.984,6.528,13.608,9.504l8.656-13.456
		c-4.288-2.76-8.528-5.72-12.616-8.816L108.616,411.184z"/>
	<path style="fill:#334C5B;" d="M166.864,442.576c5.224,1.84,10.56,3.504,15.856,4.92l4.152-15.456
		c-4.904-1.32-9.848-2.856-14.688-4.56L166.864,442.576z"/>
	<path style="fill:#334C5B;" d="M198.92,451.168c5.448,1.024,10.984,1.832,16.44,2.424l1.704-15.904
		c-5.048-0.536-10.16-1.296-15.192-2.232L198.92,451.168z"/>
	<path style="fill:#334C5B;" d="M83.768,389.2c3.864,3.984,7.904,7.84,12.008,11.472l10.592-11.984
		c-3.8-3.36-7.536-6.928-11.12-10.624L83.768,389.2z"/>
	<path style="fill:#334C5B;" d="M59.8,328.04l-14.312,7.144c2.456,4.92,5.136,9.824,7.984,14.568l13.728-8.216
		C64.56,337.136,62.072,332.592,59.8,328.04z"/>
	<path style="fill:#334C5B;" d="M41.224,269.648l-15.816,2.44c0.84,5.456,1.912,10.936,3.168,16.312l15.576-3.656
		C42.992,279.776,42.008,274.688,41.224,269.648z"/>
	<path style="fill:#334C5B;" d="M48.24,299.544L33,304.4c1.664,5.224,3.56,10.48,5.648,15.616l14.824-6
		C51.536,309.256,49.784,304.392,48.24,299.544z"/>
	<path style="fill:#334C5B;" d="M75.608,354.416l-13.056,9.248c3.216,4.528,6.616,8.96,10.12,13.168L84.968,366.6
		C81.728,362.712,78.576,358.608,75.608,354.416z"/>
	<path style="fill:#334C5B;" d="M34.984,213.728l40-24l-8.232-13.72L45.24,188.912c22.472-86.76,102.448-150.048,193.624-150.048
		c2.152,0,4.312,0.04,6.448,0.104l0.504-15.984c-2.304-0.08-4.624-0.12-6.952-0.12c-99.568,0-186.816,69.88-209.944,165.216
		l-15.2-25.336L0,170.976l24,40c1.504,2.496,4.144,3.88,6.864,3.88C32.272,214.864,33.696,214.496,34.984,213.728z"/>
	<path style="fill:#334C5B;" d="M453.72,266.752c-2.28-3.792-7.192-5.016-10.976-2.744l-40,24l8.232,13.72l21.512-12.904
		c-22.472,86.76-102.448,150.04-193.624,150.04c-2.152,0-4.312-0.04-6.448-0.104l-0.504,15.984c2.304,0.08,4.624,0.12,6.952,0.12
		c99.568,0,186.816-69.88,209.944-165.216l15.2,25.336l13.72-8.232L453.72,266.752z"/>
</g>
</svg>