<?xml version="1.0" encoding="iso-8859-1"?>
<!-- Uploaded to: SVG Repo, www.svgrepo.com, Generator: SVG Repo Mixer Tools -->
<svg fill="#000000" height="800px" width="800px" version="1.1" id="Layer_1" xmlns="http://www.w3.org/2000/svg" xmlns:xlink="http://www.w3.org/1999/xlink" 
	 viewBox="0 0 477.72 477.72" xml:space="preserve">
<g>
	<g>
		<path d="M238.864,78.86c-88.224,0-160,71.776-160,160s71.776,160,160,160s160-71.776,160-160S327.088,78.86,238.864,78.86z
			 M238.864,382.86c-79.4,0-144-64.6-144-144s64.6-144,144-144s144,64.6,144,144S318.264,382.86,238.864,382.86z"/>
	</g>
</g>
<g>
	<g>
		<path d="M238.864,110.86c-70.576,0-128,57.424-128,128s57.424,128,128,128s128-57.424,128-128S309.44,110.86,238.864,110.86z
			 M294.864,335.708c-9.832,5.712-20.576,9.992-32,12.496V302.86c0-4.424-3.584-8-8-8h-48v-48c0-4.424-3.584-8-8-8h-16v-16
			c0-30.872,25.12-56,56-56s56,25.128,56,56V335.708z M310.864,324.524V222.86c0-39.704-32.304-72-72-72s-72,32.296-72,72v24
			c0,4.424,3.584,8,8,8h16v48c0,4.424,3.584,8,8,8h48v39.592c-2.656,0.192-5.296,0.408-8,0.408c-61.76,0-112-50.24-112-112
			s50.24-112,112-112s112,50.24,112,112C350.864,273.212,335.288,303.964,310.864,324.524z"/>
	</g>
</g>
<g>
	<g>
		<path d="M381.952,77.052L371.36,89.036c3.8,3.36,7.536,6.928,11.12,10.624l11.48-11.136
			C390.096,84.54,386.056,80.684,381.952,77.052z"/>
	</g>
</g>
<g>
	<g>
		<path d="M355.504,57.036l-8.656,13.456c4.288,2.76,8.528,5.72,12.616,8.816l9.648-12.768
			C364.704,63.204,360.12,60.012,355.504,57.036z"/>
	</g>
</g>
<g>
	<g>
		<path d="M326.288,41.3l-6.48,14.624c4.64,2.064,9.288,4.336,13.8,6.768l7.592-14.08C336.328,45.98,331.304,43.516,326.288,41.3z"
			/>
	</g>
</g>
<g>
	<g>
		<path d="M439.08,157.708l-14.832,6c1.944,4.76,3.696,9.632,5.24,14.472l15.24-4.856C443.064,168.1,441.168,162.844,439.08,157.708
			z"/>
	</g>
</g>
<g>
	<g>
		<path d="M424.256,127.98l-13.728,8.216c2.64,4.4,5.128,8.936,7.4,13.496l14.312-7.144
			C429.784,137.628,427.104,132.724,424.256,127.98z"/>
	</g>
</g>
<g>
	<g>
		<path d="M295.008,30.228l-4.152,15.456c4.904,1.32,9.84,2.848,14.688,4.56l5.32-15.096
			C305.64,33.308,300.304,31.644,295.008,30.228z"/>
	</g>
</g>
<g>
	<g>
		<path d="M449.152,189.324l-15.576,3.656c1.16,4.976,2.144,10.056,2.928,15.096l15.816-2.44
			C451.48,200.18,450.408,194.7,449.152,189.324z"/>
	</g>
</g>
<g>
	<g>
		<path d="M405.056,100.9l-12.296,10.232c3.24,3.888,6.392,7.984,9.36,12.184l13.056-9.248
			C411.96,109.54,408.56,105.108,405.056,100.9z"/>
	</g>
</g>
<g>
	<g>
		<path d="M262.368,24.132l-1.704,15.904c5.048,0.536,10.16,1.296,15.192,2.232l2.952-15.712
			C273.36,25.532,267.824,24.724,262.368,24.132z"/>
	</g>
</g>
<g>
	<g>
		<path d="M144.12,415.028l-7.592,14.08c4.872,2.632,9.896,5.096,14.912,7.312l6.48-14.624
			C153.28,419.732,148.632,417.46,144.12,415.028z"/>
	</g>
</g>
<g>
	<g>
		<path d="M172.184,427.476l-5.32,15.096c5.224,1.84,10.56,3.504,15.856,4.92l4.152-15.456
			C181.968,430.716,177.032,429.188,172.184,427.476z"/>
	</g>
</g>
<g>
	<g>
		<path d="M118.264,398.412l-9.648,12.768c4.408,3.336,8.992,6.528,13.608,9.504l8.656-13.456
			C126.592,404.468,122.352,401.508,118.264,398.412z"/>
	</g>
</g>
<g>
	<g>
		<path d="M95.248,378.06l-11.48,11.136c3.864,3.984,7.904,7.84,12.008,11.472l10.592-11.984
			C102.568,385.324,98.832,381.756,95.248,378.06z"/>
	</g>
</g>
<g>
	<g>
		<path d="M201.872,435.452l-2.952,15.712c5.448,1.024,10.984,1.832,16.44,2.424l1.704-15.904
			C212.016,437.148,206.904,436.388,201.872,435.452z"/>
	</g>
</g>
<g>
	<g>
		<path d="M41.224,269.644l-15.816,2.44c0.84,5.456,1.912,10.936,3.168,16.312l15.576-3.656
			C42.992,279.764,42.008,274.684,41.224,269.644z"/>
	</g>
</g>
<g>
	<g>
		<path d="M48.24,299.54L33,304.396c1.664,5.224,3.56,10.48,5.648,15.616l14.832-6C51.536,309.252,49.784,304.38,48.24,299.54z"/>
	</g>
</g>
<g>
	<g>
		<path d="M75.608,354.404l-13.056,9.256c3.216,4.528,6.616,8.96,10.12,13.168l12.296-10.232
			C81.728,362.7,78.576,358.604,75.608,354.404z"/>
	</g>
</g>
<g>
	<g>
		<path d="M59.8,328.028l-14.312,7.144c2.456,4.92,5.136,9.824,7.984,14.568l13.728-8.216
			C64.56,337.124,62.072,332.588,59.8,328.028z"/>
	</g>
</g>
<g>
	<g>
		<path d="M238.864,22.86c-99.568,0-186.816,69.88-209.944,165.216l-15.2-25.336L0,170.972l24,40
			c1.504,2.504,4.152,3.888,6.872,3.888c1.4,0,2.824-0.368,4.112-1.144l40-24l-8.232-13.72L45.24,188.9
			C67.704,102.14,147.688,38.86,238.864,38.86c2.16,0,4.312,0.04,6.448,0.104l0.504-15.984
			C243.512,22.9,241.192,22.86,238.864,22.86z"/>
	</g>
</g>
<g>
	<g>
		<path d="M453.72,266.74c-2.28-3.792-7.192-5.016-10.976-2.744l-40,24l8.232,13.72l21.512-12.904
			C410.024,375.58,330.04,438.86,238.864,438.86c-2.16,0-4.312-0.04-6.448-0.104l-0.504,15.984c2.304,0.08,4.624,0.12,6.952,0.12
			c99.568,0,186.816-69.88,209.944-165.216l15.2,25.336l13.712-8.24L453.72,266.74z"/>
	</g>
</g>
</svg>